# xmcd CD database file
#
# Track frame offsets:
#	150
#	15621
#	23385
#	33844
#	71283
#	78134
#	96110
#	112874
#	135441
#	145824
#	154312
#	171576
#	180987
#	194908
#	208628
#	221874
#	237464
#	248712
#	258489
#
# Disc length: 3616 seconds
#
# Revision: 0
# Processed by: cddbd v1.5.2PL0 Copyright (c) Steve Scherf et al.
# Submitted via: CDex 1.70beta2
#
DISCID=010e1e13
DTITLE=Robbins Marty - The Drifter - Saddle Tramp [CD1)
DYEAR=2018
DGENRE=Country
TTITLE0=Meet Me Tonight In Laredo
TTITLE1=The Wind Goes
TTITLE2=Cry Stampede
TTITLE3=Feleena
TTITLE4=Never Tie Me Down
TTITLE5=Cottonwood Tree
TTITLE6=Oh Virginia
TTITLE7=Mr. Shorty
TTITLE8=Take Me Back To The Prarie
TTITLE9=I'm Gonna Be A Cowboy
TTITLE10=Billy Venero
TTITLE11=Saddle Tramp
TTITLE12=Johnny Fedavo
TTITLE13=La Paloma
TTITLE14=The Cowboy In The Continental Suit
TTITLE15=Jimmy Martinez
TTITLE16=When The Work's All Done This fall
TTITLE17=The Roving Gambler
TTITLE18=Maria Elena
EXTD=YEAR: 2018
EXTT0=
EXTT1=
EXTT2=
EXTT3=
EXTT4=
EXTT5=
EXTT6=
EXTT7=
EXTT8=
EXTT9=
EXTT10=
EXTT11=
EXTT12=
EXTT13=
EXTT14=
EXTT15=
EXTT16=
EXTT17=
EXTT18=
PLAYORDER=
